<svg width="285" height="402" viewBox="0 0 285 402" fill="none" xmlns="http://www.w3.org/2000/svg">
<g id="bgCircles2">
<path id="Vector" d="M173.17 342.598C149.33 342.598 130.003 321.452 130.003 295.367C130.003 269.281 149.33 248.135 173.17 248.135C197.01 248.135 216.337 269.281 216.337 295.367C216.337 321.452 197.01 342.598 173.17 342.598Z" fill="white"/>
<path id="Vector_2" d="M166.151 335.686C142.311 335.686 122.984 314.54 122.984 288.455C122.984 262.369 142.311 241.223 166.151 241.223C189.991 241.223 209.318 262.369 209.318 288.455C209.318 314.54 189.991 335.686 166.151 335.686Z" fill="#4D5D83"/>
<path id="Vector_3" d="M68.1697 207.463C44.3293 207.463 25.0028 186.317 25.0028 160.231C25.0028 134.146 44.3293 113 68.1697 113C92.0101 113 111.337 134.146 111.337 160.231C111.337 186.317 92.0101 207.463 68.1697 207.463Z" fill="#4D5D83"/>
<path id="Vector_4" d="M241.5 174C230.178 174 221 165.493 221 155C221 144.507 230.178 136 241.5 136C252.822 136 262 144.507 262 155C262 165.493 252.822 174 241.5 174Z" fill="#4D5D83"/>
<path id="Vector_5" d="M119.728 401.223C132.266 401.223 144.522 397.155 154.947 389.534C165.371 381.912 173.496 371.08 178.294 358.406C183.092 345.732 184.348 331.786 181.902 318.331C179.456 304.877 173.418 292.518 164.553 282.818C155.687 273.118 144.392 266.512 132.095 263.835C119.799 261.159 107.053 262.533 95.4694 267.782C83.8861 273.032 73.9857 281.922 67.0202 293.328C60.0547 304.735 56.3368 318.145 56.3368 331.863C56.3558 350.252 63.0407 367.882 74.9247 380.885C86.8088 393.888 102.922 401.202 119.728 401.223ZM119.728 264.097C131.978 264.097 143.952 268.072 154.137 275.518C164.322 282.964 172.26 293.548 176.948 305.93C181.636 318.313 182.862 331.938 180.472 345.083C178.083 358.229 172.184 370.303 163.522 379.781C154.861 389.258 143.825 395.712 131.811 398.327C119.797 400.941 107.344 399.599 96.0271 394.47C84.7101 389.341 75.0373 380.656 68.2319 369.512C61.4265 358.368 57.7941 345.266 57.7941 331.863C57.8127 313.897 64.3438 296.672 75.9547 283.968C87.5656 271.264 103.308 264.118 119.728 264.097Z" fill="#D40F0F"/>
<path id="Vector_6" d="M221.391 287.72C233.929 287.72 246.185 283.653 256.609 276.031C267.034 268.41 275.159 257.577 279.957 244.903C284.755 232.229 286.01 218.283 283.564 204.829C281.118 191.374 275.081 179.015 266.216 169.315C257.35 159.615 246.055 153.009 233.758 150.333C221.461 147.656 208.715 149.03 197.132 154.28C185.549 159.529 175.648 168.42 168.683 179.826C161.717 191.232 158 204.642 158 218.36C158.019 236.749 164.703 254.379 176.587 267.382C188.472 280.385 204.584 287.7 221.391 287.72ZM221.391 150.595C233.64 150.595 245.615 154.569 255.8 162.015C265.985 169.461 273.923 180.045 278.611 192.427C283.298 204.81 284.525 218.435 282.135 231.581C279.745 244.726 273.847 256.801 265.185 266.278C256.523 275.755 245.488 282.209 233.474 284.824C221.46 287.439 209.007 286.097 197.69 280.968C186.373 275.839 176.7 267.153 169.895 256.009C163.089 244.865 159.457 231.763 159.457 218.36C159.475 200.394 166.007 183.169 177.617 170.465C189.228 157.761 204.971 150.615 221.391 150.595Z" fill="#D40F0F"/>
<path id="Vector_7" d="M158.039 106.725C177.043 106.725 192.449 90.2247 192.449 69.8706C192.449 49.5166 177.043 33.0164 158.039 33.0164C139.034 33.0164 123.628 49.5166 123.628 69.8706C123.628 90.2247 139.034 106.725 158.039 106.725Z" fill="#4D5D83"/>
<path id="Vector_8" d="M166.368 92.8892C157.791 92.8892 149.407 90.1653 142.276 85.0619C135.144 79.9585 129.586 72.7048 126.304 64.2182C123.022 55.7316 122.163 46.3931 123.836 37.3837C125.51 28.3744 129.64 20.0987 135.704 13.6033C141.769 7.10793 149.496 2.68452 157.908 0.892442C166.32 -0.899633 175.039 0.0201201 182.963 3.5354C190.887 7.05068 197.66 13.0036 202.424 20.6414C207.189 28.2792 209.733 37.2587 209.733 46.4446C209.72 58.7582 205.147 70.5635 197.017 79.2705C188.887 87.9775 177.865 92.8753 166.368 92.8892ZM166.368 1.22224C158.017 1.22224 149.853 3.87449 142.91 8.84359C135.966 13.8127 130.554 20.8755 127.358 29.1388C124.162 37.4021 123.326 46.4948 124.956 55.2671C126.585 64.0394 130.606 72.0972 136.511 78.4217C142.416 84.7461 149.94 89.0531 158.13 90.798C166.321 92.543 174.811 91.6474 182.526 88.2246C190.242 84.8019 196.836 79.0056 201.476 71.5688C206.115 64.132 208.592 55.3888 208.592 46.4446C208.579 34.4551 204.126 22.9604 196.211 14.4825C188.295 6.00465 177.562 1.23581 166.368 1.22224Z" fill="#D40F0F"/>
<path id="Vector_9" d="M43.3677 252.666C34.7909 252.666 26.4068 249.942 19.2755 244.839C12.1442 239.735 6.58597 232.482 3.30378 223.995C0.0215968 215.508 -0.837172 206.17 0.836071 197.161C2.50931 188.151 6.63942 179.876 12.7041 173.38C18.7688 166.885 26.4957 162.461 34.9076 160.669C43.3196 158.877 52.0388 159.797 59.9627 163.312C67.8866 166.828 74.6593 172.78 79.4243 180.418C84.1893 188.056 86.7326 197.036 86.7326 206.221C86.7196 218.535 82.1466 230.34 74.0169 239.047C65.8873 247.754 54.8648 252.652 43.3677 252.666ZM43.3677 160.999C35.0166 160.999 26.8531 163.651 19.9095 168.62C12.9658 173.59 7.55391 180.652 4.35809 188.916C1.16228 197.179 0.326114 206.272 1.95532 215.044C3.58454 223.816 7.60595 231.874 13.511 238.199C19.4161 244.523 26.9397 248.83 35.1303 250.575C43.3209 252.32 51.8106 251.424 59.526 248.001C67.2414 244.579 73.8358 238.782 78.4754 231.346C83.115 223.909 85.5914 215.166 85.5914 206.221C85.5787 194.232 81.1261 182.737 73.2104 174.259C65.2946 165.782 54.5622 161.013 43.3677 160.999V160.999Z" fill="#D40F0F"/>
</g>
</svg>
