<svg width="294" height="348" viewBox="0 0 294 348" fill="none" xmlns="http://www.w3.org/2000/svg">
<g id="bgCircles">
<path id="Vector" d="M66.1669 289.375C90.0073 289.375 109.334 268.229 109.334 242.144C109.334 216.058 90.0073 194.912 66.1669 194.912C42.3265 194.912 23 216.058 23 242.144C23 268.229 42.3265 289.375 66.1669 289.375Z" fill="white"/>
<path id="Vector_2" d="M73.1858 282.463C97.0263 282.463 116.353 261.317 116.353 235.231C116.353 209.146 97.0263 188 73.1858 188C49.3454 188 30.0189 209.146 30.0189 235.231C30.0189 261.317 49.3454 282.463 73.1858 282.463Z" fill="#4D5D83"/>
<path id="Vector_3" d="M127.167 130.463C151.007 130.463 170.334 109.317 170.334 83.2314C170.334 57.1462 151.007 36 127.167 36C103.326 36 84 57.1462 84 83.2314C84 109.317 103.326 130.463 127.167 130.463Z" fill="#4D5D83"/>
<path id="Vector_4" d="M170 348C181.046 348 190 339.493 190 329C190 318.507 181.046 310 170 310C158.954 310 150 318.507 150 329C150 339.493 158.954 348 170 348Z" fill="#4D5D83"/>
<path id="Vector_5" d="M119.609 348C107.071 348 94.8148 343.932 84.3902 336.311C73.9655 328.689 65.8405 317.857 61.0425 305.183C56.2446 292.509 54.9892 278.563 57.4352 265.108C59.8812 251.654 65.9186 239.295 74.784 229.595C83.6495 219.895 94.9448 213.289 107.242 210.612C119.538 207.936 132.284 209.31 143.867 214.559C155.451 219.809 165.351 228.699 172.317 240.105C179.282 251.512 183 264.922 183 278.64C182.981 297.029 176.296 314.659 164.412 327.662C152.528 340.665 136.415 347.979 119.609 348ZM119.609 210.874C107.359 210.874 95.3848 214.848 85.1998 222.295C75.0148 229.741 67.0765 240.324 62.3889 252.707C57.7012 265.09 56.4747 278.715 58.8645 291.86C61.2542 305.006 67.1528 317.08 75.8145 326.557C84.4761 336.035 95.5118 342.489 107.526 345.103C119.54 347.718 131.993 346.376 143.31 341.247C154.627 336.118 164.3 327.432 171.105 316.288C177.91 305.144 181.543 292.043 181.543 278.64C181.524 260.673 174.993 243.449 163.382 230.745C151.771 218.04 136.029 210.894 119.609 210.874V210.874Z" fill="#D40F0F"/>
<path id="Vector_6" d="M63.3915 138.72C50.8538 138.72 38.5977 134.653 28.1731 127.031C17.7484 119.41 9.62336 108.577 4.82542 95.9032C0.0274694 83.2293 -1.2279 69.2833 1.21808 55.8287C3.66405 42.3742 9.70149 30.0154 18.5669 20.3152C27.4324 10.615 38.7277 4.00905 51.0244 1.33277C63.3211 -1.34351 76.067 0.0300559 87.6503 5.27977C99.2336 10.5295 109.134 19.4196 116.1 30.8258C123.065 42.232 126.783 55.6421 126.783 69.3602C126.764 87.7493 120.079 105.379 108.195 118.382C96.3109 131.385 80.1981 138.7 63.3915 138.72ZM63.3915 1.59451C51.142 1.59451 39.1677 5.56889 28.9827 13.0151C18.7977 20.4613 10.8594 31.0449 6.17178 43.4274C1.48413 55.81 0.257612 69.4354 2.64735 82.5807C5.0371 95.726 10.9357 107.801 19.5974 117.278C28.259 126.755 39.2947 133.209 51.3087 135.824C63.3228 138.439 75.7756 137.097 87.0926 131.968C98.4096 126.839 108.082 118.153 114.888 107.009C121.693 95.8649 125.326 82.763 125.326 69.3602C125.307 51.3939 118.776 34.1692 107.165 21.4651C95.5541 8.76094 79.8117 1.61483 63.3915 1.59451V1.59451Z" fill="#D40F0F"/>
<path id="Vector_7" d="M229.5 219C255.181 219 276 197.062 276 170C276 142.938 255.181 121 229.5 121C203.819 121 183 142.938 183 170C183 197.062 203.819 219 229.5 219Z" fill="#4D5D83"/>
<path id="Vector_8" d="M250.365 204.889C241.788 204.889 233.404 202.165 226.273 197.062C219.141 191.958 213.583 184.705 210.301 176.218C207.019 167.732 206.16 158.393 207.833 149.384C209.507 140.374 213.637 132.099 219.701 125.603C225.766 119.108 233.493 114.685 241.905 112.892C250.317 111.1 259.036 112.02 266.96 115.535C274.884 119.051 281.656 125.004 286.421 132.641C291.186 140.279 293.73 149.259 293.73 158.445C293.717 170.758 289.144 182.563 281.014 191.271C272.884 199.978 261.862 204.875 250.365 204.889ZM250.365 113.222C242.014 113.222 233.85 115.874 226.907 120.844C219.963 125.813 214.551 132.875 211.355 141.139C208.159 149.402 207.323 158.495 208.953 167.267C210.582 176.039 214.603 184.097 220.508 190.422C226.413 196.746 233.937 201.053 242.127 202.798C250.318 204.543 258.808 203.647 266.523 200.225C274.239 196.802 280.833 191.006 285.473 183.569C290.112 176.132 292.589 167.389 292.589 158.445C292.576 146.455 288.123 134.96 280.208 126.483C272.292 118.005 261.559 113.236 250.365 113.222V113.222Z" fill="#D40F0F"/>
</g>
</svg>
