<svg width="306" height="348" viewBox="0 0 306 348" fill="none" xmlns="http://www.w3.org/2000/svg">
<g id="bgCircles6">
<path id="Vector" d="M208.833 289.375C184.993 289.375 165.666 268.229 165.666 242.144C165.666 216.058 184.993 194.912 208.833 194.912C232.674 194.912 252 216.058 252 242.144C252 268.229 232.674 289.375 208.833 289.375Z" fill="white"/>
<path id="Vector_2" d="M201.814 282.463C177.974 282.463 158.647 261.317 158.647 235.231C158.647 209.146 177.974 188 201.814 188C225.655 188 244.981 209.146 244.981 235.231C244.981 261.317 225.655 282.463 201.814 282.463Z" fill="#4D5D83"/>
<path id="Vector_3" d="M147.833 130.463C123.993 130.463 104.666 109.317 104.666 83.2314C104.666 57.1462 123.993 36 147.833 36C171.674 36 191 57.1462 191 83.2314C191 109.317 171.674 130.463 147.833 130.463Z" fill="#4D5D83"/>
<path id="Vector_4" d="M105 348C93.9543 348 85 339.493 85 329C85 318.507 93.9543 310 105 310C116.046 310 125 318.507 125 329C125 339.493 116.046 348 105 348Z" fill="#4D5D83"/>
<path id="Vector_5" d="M20 149C8.9543 149 0 140.493 0 130C0 119.507 8.9543 111 20 111C31.0457 111 40 119.507 40 130C40 140.493 31.0457 149 20 149Z" fill="#4D5D83"/>
<path id="Vector_6" d="M272 107C260.954 107 252 98.4934 252 88C252 77.5066 260.954 69 272 69C283.046 69 292 77.5066 292 88C292 98.4934 283.046 107 272 107Z" fill="#4D5D83"/>
<path id="Vector_7" d="M155.391 348C167.929 348 180.185 343.932 190.61 336.311C201.034 328.689 209.159 317.857 213.957 305.183C218.755 292.509 220.011 278.563 217.565 265.108C215.119 251.654 209.081 239.295 200.216 229.595C191.35 219.895 180.055 213.289 167.758 210.612C155.462 207.936 142.716 209.31 131.133 214.559C119.549 219.809 109.649 228.699 102.683 240.105C95.7178 251.512 91.9999 264.922 91.9999 278.64C92.019 297.029 98.7038 314.659 110.588 327.662C122.472 340.665 138.585 347.979 155.391 348ZM155.391 210.874C167.641 210.874 179.615 214.848 189.8 222.295C199.985 229.741 207.923 240.324 212.611 252.707C217.299 265.09 218.525 278.715 216.135 291.86C213.746 305.006 207.847 317.08 199.185 326.557C190.524 336.035 179.488 342.489 167.474 345.103C155.46 347.718 143.007 346.376 131.69 341.247C120.373 336.118 110.7 327.432 103.895 316.288C97.0896 305.144 93.4572 292.043 93.4572 278.64C93.4758 260.673 100.007 243.449 111.618 230.745C123.229 218.04 138.971 210.894 155.391 210.874V210.874Z" fill="#D40F0F"/>
<path id="Vector_8" d="M211.609 138.72C224.146 138.72 236.402 134.653 246.827 127.031C257.252 119.41 265.377 108.577 270.175 95.9032C274.973 83.2293 276.228 69.2833 273.782 55.8287C271.336 42.3742 265.299 30.0154 256.433 20.3152C247.568 10.615 236.272 4.00905 223.976 1.33277C211.679 -1.34351 198.933 0.0300559 187.35 5.27977C175.766 10.5295 165.866 19.4196 158.9 30.8258C151.935 42.232 148.217 55.6421 148.217 69.3602C148.236 87.7493 154.921 105.379 166.805 118.382C178.689 131.385 194.802 138.7 211.609 138.72ZM211.609 1.59451C223.858 1.59451 235.832 5.56889 246.017 13.0151C256.202 20.4613 264.141 31.0449 268.828 43.4274C273.516 55.81 274.742 69.4354 272.353 82.5807C269.963 95.726 264.064 107.801 255.403 117.278C246.741 126.755 235.705 133.209 223.691 135.824C211.677 138.439 199.224 137.097 187.907 131.968C176.59 126.839 166.918 118.153 160.112 107.009C153.307 95.8649 149.674 82.763 149.674 69.3602C149.693 51.3939 156.224 34.1692 167.835 21.4651C179.446 8.76094 195.188 1.61483 211.609 1.59451V1.59451Z" fill="#D40F0F"/>
<path id="Vector_9" d="M86.5 224C60.8188 224 40 202.062 40 175C40 147.938 60.8188 126 86.5 126C112.181 126 133 147.938 133 175C133 202.062 112.181 224 86.5 224Z" fill="#4D5D83"/>
<path id="Vector_10" d="M65.6351 209.889C74.2119 209.889 82.596 207.165 89.7273 202.062C96.8587 196.958 102.417 189.705 105.699 181.218C108.981 172.732 109.84 163.393 108.167 154.384C106.493 145.374 102.363 137.099 96.2987 130.603C90.234 124.108 82.5071 119.685 74.0952 117.892C65.6832 116.1 56.964 117.02 49.0401 120.535C41.1162 124.051 34.3435 130.004 29.5785 137.641C24.8135 145.279 22.2702 154.259 22.2702 163.445C22.2832 175.758 26.8562 187.563 34.9859 196.271C43.1155 204.978 54.138 209.875 65.6351 209.889ZM65.6351 118.222C73.9862 118.222 82.1497 120.874 89.0933 125.844C96.037 130.813 101.449 137.875 104.645 146.139C107.841 154.402 108.677 163.495 107.047 172.267C105.418 181.039 101.397 189.097 95.4918 195.422C89.5867 201.746 82.0631 206.053 73.8725 207.798C65.6819 209.543 57.1922 208.647 49.4768 205.225C41.7614 201.802 35.167 196.006 30.5274 188.569C25.8878 181.132 23.4114 172.389 23.4114 163.445C23.4241 151.455 27.8767 139.96 35.7924 131.483C43.7082 123.005 54.4406 118.236 65.6351 118.222V118.222Z" fill="#D40F0F"/>
<path id="Vector_11" d="M262.635 256.889C271.212 256.889 279.596 254.165 286.727 249.062C293.859 243.958 299.417 236.705 302.699 228.218C305.981 219.732 306.84 210.393 305.167 201.384C303.493 192.374 299.363 184.099 293.299 177.603C287.234 171.108 279.507 166.685 271.095 164.892C262.683 163.1 253.964 164.02 246.04 167.535C238.116 171.051 231.344 177.004 226.579 184.641C221.814 192.279 219.27 201.259 219.27 210.445C219.283 222.758 223.856 234.563 231.986 243.271C240.116 251.978 251.138 256.875 262.635 256.889ZM262.635 165.222C270.986 165.222 279.15 167.874 286.093 172.844C293.037 177.813 298.449 184.875 301.645 193.139C304.841 201.402 305.677 210.495 304.047 219.267C302.418 228.039 298.397 236.097 292.492 242.422C286.587 248.746 279.063 253.053 270.873 254.798C262.682 256.543 254.192 255.647 246.477 252.225C238.761 248.802 232.167 243.006 227.527 235.569C222.888 228.132 220.411 219.389 220.411 210.445C220.424 198.455 224.877 186.96 232.792 178.483C240.708 170.005 251.441 165.236 262.635 165.222V165.222Z" fill="#D40F0F"/>
</g>
</svg>
