<svg calss="bgCircles" width="284" height="312" viewBox="0 0 284 312" fill="none" xmlns="http://www.w3.org/2000/svg">
<g calss="bgCircles">
<path id="Vector" d="M43.1669 253.375C67.0073 253.375 86.3338 232.229 86.3338 206.144C86.3338 180.058 67.0073 158.912 43.1669 158.912C19.3265 158.912 0 180.058 0 206.144C0 232.229 19.3265 253.375 43.1669 253.375Z" fill="#F2F2F2"/>
<path id="Vector_2" d="M50.1858 246.463C74.0263 246.463 93.3527 225.317 93.3527 199.231C93.3527 173.146 74.0263 152 50.1858 152C26.3454 152 7.01892 173.146 7.01892 199.231C7.01892 225.317 26.3454 246.463 50.1858 246.463Z" fill="#4D5D83"/>
<path id="Vector_3" d="M104.167 94.4628C128.007 94.4628 147.334 73.3166 147.334 47.2314C147.334 21.1462 128.007 0 104.167 0C80.3265 0 61 21.1462 61 47.2314C61 73.3166 80.3265 94.4628 104.167 94.4628Z" fill="#4D5D83"/>
<path id="Vector_4" d="M96.6086 312C84.0709 312 71.8148 307.932 61.3902 300.311C50.9655 292.689 42.8405 281.857 38.0425 269.183C33.2446 256.509 31.9892 242.563 34.4352 229.108C36.8812 215.654 42.9186 203.295 51.784 193.595C60.6495 183.895 71.9448 177.289 84.2415 174.612C96.5382 171.936 109.284 173.31 120.867 178.559C132.451 183.809 142.351 192.699 149.317 204.105C156.282 215.512 160 228.922 160 242.64C159.981 261.029 153.296 278.659 141.412 291.662C129.528 304.665 113.415 311.979 96.6086 312ZM96.6086 174.874C84.3591 174.874 72.3848 178.848 62.1998 186.295C52.0148 193.741 44.0765 204.324 39.3889 216.707C34.7012 229.09 33.4747 242.715 35.8645 255.86C38.2542 269.006 44.1528 281.08 52.8145 290.557C61.4761 300.035 72.5118 306.489 84.5258 309.103C96.5399 311.718 108.993 310.376 120.31 305.247C131.627 300.118 141.3 291.432 148.105 280.288C154.91 269.144 158.543 256.043 158.543 242.64C158.524 224.673 151.993 207.449 140.382 194.745C128.771 182.04 113.029 174.894 96.6086 174.874V174.874Z" fill="#D40F0F"/>
<path id="Vector_5" d="M232.035 212.725C251.04 212.725 266.446 196.225 266.446 175.871C266.446 155.517 251.04 139.016 232.035 139.016C213.031 139.016 197.625 155.517 197.625 175.871C197.625 196.225 213.031 212.725 232.035 212.725Z" fill="#4D5D83"/>
<path id="Vector_6" d="M240.365 198.889C231.788 198.889 223.404 196.165 216.273 191.062C209.141 185.958 203.583 178.705 200.301 170.218C197.019 161.732 196.16 152.393 197.833 143.384C199.507 134.374 203.637 126.099 209.701 119.603C215.766 113.108 223.493 108.685 231.905 106.892C240.317 105.1 249.036 106.02 256.96 109.535C264.884 113.051 271.656 119.004 276.421 126.641C281.186 134.279 283.73 143.259 283.73 152.445C283.717 164.758 279.144 176.563 271.014 185.271C262.884 193.978 251.862 198.875 240.365 198.889ZM240.365 107.222C232.014 107.222 223.85 109.874 216.907 114.844C209.963 119.813 204.551 126.875 201.355 135.139C198.159 143.402 197.323 152.495 198.953 161.267C200.582 170.039 204.603 178.097 210.508 184.422C216.413 190.746 223.937 195.053 232.127 196.798C240.318 198.543 248.808 197.647 256.523 194.225C264.239 190.802 270.833 185.006 275.473 177.569C280.112 170.132 282.589 161.389 282.589 152.445C282.576 140.455 278.123 128.96 270.208 120.483C262.292 112.005 251.559 107.236 240.365 107.222V107.222Z" fill="#D40F0F"/>
</g>
</svg>
