<svg width="214" height="336" viewBox="0 0 214 336" fill="none" xmlns="http://www.w3.org/2000/svg">
<g id="bgCircles2">
<path id="Vector" d="M170.167 277.375C146.326 277.375 127 256.229 127 230.144C127 204.058 146.326 182.912 170.167 182.912C194.007 182.912 213.334 204.058 213.334 230.144C213.334 256.229 194.007 277.375 170.167 277.375Z" fill="#F2F2F2"/>
<path id="Vector_2" d="M163.148 270.463C139.307 270.463 119.981 249.317 119.981 223.231C119.981 197.146 139.307 176 163.148 176C186.988 176 206.315 197.146 206.315 223.231C206.315 249.317 186.988 270.463 163.148 270.463Z" fill="#4D5D83"/>
<path id="Vector_3" d="M43.1668 151.463C19.3264 151.463 -7.62939e-05 130.317 -7.62939e-05 104.231C-7.62939e-05 78.1462 19.3264 57 43.1668 57C67.0072 57 86.3337 78.1462 86.3337 104.231C86.3337 130.317 67.0072 151.463 43.1668 151.463Z" fill="#4D5D83"/>
<path id="Vector_4" d="M116.725 336C129.263 336 141.519 331.932 151.944 324.311C162.368 316.689 170.493 305.857 175.291 293.183C180.089 280.509 181.345 266.563 178.899 253.108C176.453 239.654 170.415 227.295 161.55 217.595C152.684 207.895 141.389 201.289 129.092 198.612C116.795 195.936 104.05 197.31 92.4663 202.559C80.883 207.809 70.9826 216.699 64.0171 228.105C57.0516 239.512 53.3337 252.922 53.3337 266.64C53.3527 285.029 60.0376 302.659 71.9216 315.662C83.8057 328.665 99.9185 335.979 116.725 336ZM116.725 198.874C128.975 198.874 140.949 202.848 151.134 210.295C161.319 217.741 169.257 228.324 173.945 240.707C178.632 253.09 179.859 266.715 177.469 279.86C175.08 293.006 169.181 305.08 160.519 314.557C151.858 324.035 140.822 330.489 128.808 333.103C116.794 335.718 104.341 334.376 93.024 329.247C81.707 324.118 72.0342 315.432 65.2288 304.288C58.4234 293.144 54.791 280.043 54.791 266.64C54.8096 248.673 61.3407 231.449 72.9516 218.745C84.5625 206.04 100.305 198.894 116.725 198.874V198.874Z" fill="#D40F0F"/>
<path id="Vector_5" d="M154.775 107.502C173.779 107.502 189.185 91.0015 189.185 70.6475C189.185 50.2934 173.779 33.7932 154.775 33.7932C135.77 33.7932 120.364 50.2934 120.364 70.6475C120.364 91.0015 135.77 107.502 154.775 107.502Z" fill="#4D5D83"/>
<path id="Vector_6" d="M163.104 93.6661C154.527 93.6661 146.143 90.9421 139.012 85.8387C131.881 80.7354 126.322 73.4817 123.04 64.9951C119.758 56.5084 118.899 47.17 120.573 38.1606C122.246 29.1512 126.376 20.8756 132.441 14.3802C138.505 7.88479 146.232 3.46137 154.644 1.6693C163.056 -0.122777 171.775 0.796976 179.699 4.31226C187.623 7.82754 194.396 13.7805 199.161 21.4182C203.926 29.056 206.469 38.0356 206.469 47.2215C206.456 59.5351 201.883 71.3403 193.753 80.0474C185.624 88.7544 174.601 93.6521 163.104 93.6661ZM163.104 1.9991C154.753 1.9991 146.59 4.65135 139.646 9.62044C132.702 14.5895 127.29 21.6523 124.095 29.9156C120.899 38.1789 120.063 47.2716 121.692 56.0439C123.321 64.8162 127.342 72.8741 133.247 79.1985C139.153 85.523 146.676 89.83 154.867 91.5749C163.057 93.3198 171.547 92.4243 179.262 89.0015C186.978 85.5787 193.572 79.7825 198.212 72.3457C202.851 64.9089 205.328 56.1656 205.328 47.2215C205.315 35.2319 200.863 23.7373 192.947 15.2594C185.031 6.7815 174.299 2.01266 163.104 1.9991V1.9991Z" fill="#D40F0F"/>
</g>
</svg>
