<svg class="bgCircles5" width="306" height="348" viewBox="0 0 306 348" fill="none" xmlns="http://www.w3.org/2000/svg">
<g>
<path id="Vector" d="M97.1669 289.375C121.007 289.375 140.334 268.229 140.334 242.144C140.334 216.058 121.007 194.912 97.1669 194.912C73.3265 194.912 54 216.058 54 242.144C54 268.229 73.3265 289.375 97.1669 289.375Z" fill="white"/>
<path id="Vector_2" d="M104.186 282.463C128.026 282.463 147.353 261.317 147.353 235.231C147.353 209.146 128.026 188 104.186 188C80.3454 188 61.0189 209.146 61.0189 235.231C61.0189 261.317 80.3454 282.463 104.186 282.463Z" fill="#4D5D83"/>
<path id="Vector_3" d="M158.167 130.463C182.007 130.463 201.334 109.317 201.334 83.2314C201.334 57.1462 182.007 36 158.167 36C134.326 36 115 57.1462 115 83.2314C115 109.317 134.326 130.463 158.167 130.463Z" fill="#4D5D83"/>
<path id="Vector_4" d="M201 348C212.046 348 221 339.493 221 329C221 318.507 212.046 310 201 310C189.954 310 181 318.507 181 329C181 339.493 189.954 348 201 348Z" fill="#4D5D83"/>
<path id="Vector_5" d="M286 149C297.046 149 306 140.493 306 130C306 119.507 297.046 111 286 111C274.954 111 266 119.507 266 130C266 140.493 274.954 149 286 149Z" fill="#4D5D83"/>
<path id="Vector_6" d="M34 107C45.0457 107 54 98.4934 54 88C54 77.5066 45.0457 69 34 69C22.9543 69 14 77.5066 14 88C14 98.4934 22.9543 107 34 107Z" fill="#4D5D83"/>
<path id="Vector_7" d="M150.609 348C138.071 348 125.815 343.932 115.39 336.311C104.966 328.689 96.8405 317.857 92.0425 305.183C87.2446 292.509 85.9892 278.563 88.4352 265.108C90.8812 251.654 96.9186 239.295 105.784 229.595C114.649 219.895 125.945 213.289 138.242 210.612C150.538 207.936 163.284 209.31 174.867 214.559C186.451 219.809 196.351 228.699 203.317 240.105C210.282 251.512 214 264.922 214 278.64C213.981 297.029 207.296 314.659 195.412 327.662C183.528 340.665 167.415 347.979 150.609 348ZM150.609 210.874C138.359 210.874 126.385 214.848 116.2 222.295C106.015 229.741 98.0765 240.324 93.3889 252.707C88.7012 265.09 87.4747 278.715 89.8645 291.86C92.2542 305.006 98.1528 317.08 106.814 326.557C115.476 336.035 126.512 342.489 138.526 345.103C150.54 347.718 162.993 346.376 174.31 341.247C185.627 336.118 195.3 327.432 202.105 316.288C208.91 305.144 212.543 292.043 212.543 278.64C212.524 260.673 205.993 243.449 194.382 230.745C182.771 218.04 167.029 210.894 150.609 210.874V210.874Z" fill="#D40F0F"/>
<path id="Vector_8" d="M94.3915 138.72C81.8538 138.72 69.5977 134.653 59.1731 127.031C48.7484 119.41 40.6234 108.577 35.8254 95.9032C31.0275 83.2293 29.7721 69.2833 32.2181 55.8287C34.664 42.3742 40.7015 30.0154 49.5669 20.3152C58.4324 10.615 69.7277 4.00905 82.0244 1.33277C94.3211 -1.34351 107.067 0.0300559 118.65 5.27977C130.234 10.5295 140.134 19.4196 147.1 30.8258C154.065 42.232 157.783 55.6421 157.783 69.3602C157.764 87.7493 151.079 105.379 139.195 118.382C127.311 131.385 111.198 138.7 94.3915 138.72ZM94.3915 1.59451C82.142 1.59451 70.1677 5.56889 59.9827 13.0151C49.7977 20.4613 41.8594 31.0449 37.1718 43.4274C32.4841 55.81 31.2576 69.4354 33.6474 82.5807C36.0371 95.726 41.9357 107.801 50.5974 117.278C59.259 126.755 70.2947 133.209 82.3087 135.824C94.3228 138.439 106.776 137.097 118.093 131.968C129.41 126.839 139.082 118.153 145.888 107.009C152.693 95.8649 156.326 82.763 156.326 69.3602C156.307 51.3939 149.776 34.1692 138.165 21.4651C126.554 8.76094 110.812 1.61483 94.3915 1.59451V1.59451Z" fill="#D40F0F"/>
<path id="Vector_9" d="M219.5 224C245.181 224 266 202.062 266 175C266 147.938 245.181 126 219.5 126C193.819 126 173 147.938 173 175C173 202.062 193.819 224 219.5 224Z" fill="#4D5D83"/>
<path id="Vector_10" d="M240.365 209.889C231.788 209.889 223.404 207.165 216.273 202.062C209.141 196.958 203.583 189.705 200.301 181.218C197.019 172.732 196.16 163.393 197.833 154.384C199.507 145.374 203.637 137.099 209.701 130.603C215.766 124.108 223.493 119.685 231.905 117.892C240.317 116.1 249.036 117.02 256.96 120.535C264.884 124.051 271.656 130.004 276.421 137.641C281.186 145.279 283.73 154.259 283.73 163.445C283.717 175.758 279.144 187.563 271.014 196.271C262.884 204.978 251.862 209.875 240.365 209.889ZM240.365 118.222C232.014 118.222 223.85 120.874 216.907 125.844C209.963 130.813 204.551 137.875 201.355 146.139C198.159 154.402 197.323 163.495 198.953 172.267C200.582 181.039 204.603 189.097 210.508 195.422C216.413 201.746 223.937 206.053 232.127 207.798C240.318 209.543 248.808 208.647 256.523 205.225C264.239 201.802 270.833 196.006 275.473 188.569C280.112 181.132 282.589 172.389 282.589 163.445C282.576 151.455 278.123 139.96 270.208 131.483C262.292 123.005 251.559 118.236 240.365 118.222V118.222Z" fill="#D40F0F"/>
<path id="Vector_11" d="M43.3649 256.889C34.7881 256.889 26.404 254.165 19.2727 249.062C12.1413 243.958 6.58316 236.705 3.30097 228.218C0.0187892 219.732 -0.83998 210.393 0.833263 201.384C2.50651 192.374 6.63661 184.099 12.7013 177.603C18.766 171.108 26.4929 166.685 34.9048 164.892C43.3168 163.1 52.036 164.02 59.9599 167.535C67.8838 171.051 74.6565 177.004 79.4215 184.641C84.1865 192.279 86.7298 201.259 86.7298 210.445C86.7168 222.758 82.1438 234.563 74.0141 243.271C65.8845 251.978 54.862 256.875 43.3649 256.889ZM43.3649 165.222C35.0138 165.222 26.8503 167.874 19.9067 172.844C12.963 177.813 7.5511 184.875 4.35529 193.139C1.15947 201.402 0.323306 210.495 1.95252 219.267C3.58173 228.039 7.60314 236.097 13.5082 242.422C19.4133 248.746 26.9369 253.053 35.1275 254.798C43.3181 256.543 51.8078 255.647 59.5232 252.225C67.2386 248.802 73.833 243.006 78.4726 235.569C83.1122 228.132 85.5886 219.389 85.5886 210.445C85.5759 198.455 81.1233 186.96 73.2076 178.483C65.2918 170.005 54.5594 165.236 43.3649 165.222V165.222Z" fill="#D40F0F"/>
</g>
</svg>
