<svg width="192" height="192" viewBox="0 0 192 192" fill="none" xmlns="http://www.w3.org/2000/svg">
<g id="icon">
<rect id="iconBG" width="192" height="192" rx="10" fill="#212838" fill-opacity="0.85"/>
<path id="AMcC" d="M26.0299 114L41.8699 80.16H49.0699L65.0059 114H56.1259L52.0459 104.688L55.4539 107.136H35.5819L38.9419 104.688L34.9099 114H26.0299ZM45.4219 89.28L39.8059 102.672L38.4619 100.416H52.5259L51.3259 102.672L45.6619 89.28H45.4219ZM67.2406 114V80.16H74.9206L86.0086 104.976H84.4246L95.4646 80.16H103.193V114H95.1766V93.264H97.2406L87.6406 114H82.6486L73.0006 93.264H75.2086V114H67.2406ZM121.374 114.528C118.686 114.528 116.334 114.016 114.318 112.992C112.302 111.968 110.734 110.512 109.614 108.624C108.494 106.704 107.934 104.416 107.934 101.76C107.934 99.104 108.494 96.832 109.614 94.944C110.734 93.056 112.302 91.616 114.318 90.624C116.334 89.6 118.686 89.088 121.374 89.088C123.038 89.088 124.67 89.312 126.27 89.76C127.87 90.208 129.166 90.848 130.158 91.68L127.758 97.488C126.99 96.848 126.11 96.368 125.118 96.048C124.158 95.696 123.214 95.52 122.286 95.52C120.526 95.52 119.15 96.048 118.158 97.104C117.198 98.16 116.718 99.712 116.718 101.76C116.718 103.808 117.198 105.376 118.158 106.464C119.15 107.52 120.526 108.048 122.286 108.048C123.182 108.048 124.126 107.888 125.118 107.568C126.11 107.216 126.99 106.736 127.758 106.128L130.158 111.936C129.134 112.736 127.822 113.376 126.222 113.856C124.654 114.304 123.038 114.528 121.374 114.528ZM151.167 114.528C147.487 114.528 144.303 113.808 141.615 112.368C138.959 110.928 136.895 108.896 135.423 106.272C133.983 103.648 133.263 100.576 133.263 97.056C133.263 93.536 133.983 90.48 135.423 87.888C136.895 85.264 138.959 83.232 141.615 81.792C144.303 80.352 147.487 79.632 151.167 79.632C153.503 79.632 155.631 79.952 157.551 80.592C159.471 81.2 161.087 82.08 162.399 83.232L159.759 90.192C158.287 89.136 156.927 88.4 155.679 87.984C154.463 87.536 153.071 87.312 151.503 87.312C148.623 87.312 146.399 88.16 144.831 89.856C143.295 91.52 142.527 93.92 142.527 97.056C142.527 100.224 143.295 102.656 144.831 104.352C146.399 106.016 148.623 106.848 151.503 106.848C153.071 106.848 154.463 106.64 155.679 106.224C156.927 105.776 158.287 105.024 159.759 103.968L162.399 110.928C161.087 112.08 159.471 112.976 157.551 113.616C155.631 114.224 153.503 114.528 151.167 114.528Z" fill="#ECEEF4"/>
</g>
</svg>
