<svg width="345" height="496" viewBox="0 0 345 496" fill="none" xmlns="http://www.w3.org/2000/svg">
<g id="maleprofile">
<g id="Bottom">
<g id="Seat">
<path id="Ballsy Ball" fill-rule="evenodd" clip-rule="evenodd" d="M122.54 422.932C170.311 422.932 209.037 385.941 209.037 340.309C209.037 294.678 170.311 257.686 122.54 257.686C74.7692 257.686 36.0433 294.678 36.0433 340.309C36.0433 385.941 74.7692 422.932 122.54 422.932Z" fill="#4D5D83"/>
</g>
<path id="Skin" fill-rule="evenodd" clip-rule="evenodd" d="M257.015 335.903C261.193 350.548 271.602 378.306 285.995 410.184L299.672 406.191C287.707 332.837 277.749 284.273 272.045 269.492C268.276 259.726 239.764 260.87 243.044 280.52C244.419 288.761 249.861 310.826 257.015 335.903ZM200.8 283.947C178.495 288.571 132.25 304.918 119.045 310.142C110.745 313.425 116.095 324.558 123.176 323.584C124.375 323.419 128.617 322.944 134.946 322.236C155.276 319.96 197.143 315.273 228.896 310.699C245.615 308.291 236.621 276.952 219.261 280.268C213.421 281.384 207.209 282.618 200.8 283.947Z" fill="#B28B67"/>
<path id="Leg Back" fill-rule="evenodd" clip-rule="evenodd" d="M272.919 261.214C270.639 253.767 166.982 227.335 166.982 227.335H158.487V235.256L229.916 271.644C229.821 272.818 229.879 274.059 230.11 275.368C229.594 302.343 241.131 322.495 252.553 342.447C260.023 355.494 267.444 368.456 271.413 383.185L297.656 379.267C296.891 377.31 295.683 368.489 294.03 356.428C289.862 326.016 282.873 275.007 273.067 261.512C273.032 261.465 272.998 261.418 272.962 261.371C272.95 261.319 272.935 261.266 272.919 261.214Z" fill="#1F28CF"/>
<path id="Leg Front" fill-rule="evenodd" clip-rule="evenodd" d="M164.421 293.254C157.886 291.945 151.867 290.776 146.717 289.872C113.451 284.034 103.751 266.214 109.486 227.335H170.778C180.79 230.213 232.822 252.049 259.819 263.662C277.686 271.349 272.054 299.059 261.935 306.27C261.881 306.713 261.698 307.013 261.374 307.148C223.011 323.059 190.297 321.872 169.29 321.109C160.491 320.79 153.746 320.545 149.5 321.662L142.847 300.66L164.421 293.254Z" fill="#2B44FF"/>
<g id="Right Shoe">
<path id="shoe" fill-rule="evenodd" clip-rule="evenodd" d="M126.043 308.783C126.004 307.612 125.017 306.678 123.853 306.797C121.471 307.041 117.744 307.543 115.965 308.411C113.234 309.744 108.438 313.212 108.438 313.212C109.983 316.382 136.213 370.198 136.213 370.198C136.213 370.198 144.634 368.837 142.886 363.766C141.139 358.695 140.067 355.299 140.067 355.299L138.953 322.926C138.934 322.363 138.454 321.927 137.892 321.962L132.808 322.282C132.808 322.282 128.583 318.86 127.233 316.09C126.377 314.334 126.118 310.992 126.043 308.783Z" fill="#D40F0F"/>
</g>
<g id="Right Shoe_2">
<path id="shoe_2" fill-rule="evenodd" clip-rule="evenodd" d="M282.314 402.909C281.245 402.431 279.971 402.908 279.568 404.008C278.743 406.258 277.56 409.829 277.56 411.81C277.56 414.85 278.572 420.684 278.572 420.684C282.097 420.684 341.93 420.684 341.93 420.684C341.93 420.684 344.4 412.513 339.079 411.862C333.758 411.21 330.239 410.686 330.239 410.686L300.675 397.497C300.16 397.267 299.558 397.508 299.343 398.029L297.402 402.741C297.402 402.741 292.476 405.041 289.396 405.041C287.444 405.041 284.332 403.81 282.314 402.909Z" fill="#D40F0F"/>
</g>
</g>
<g id="Group 3">
<g id="malehead">
<g id="Head">
<path id="Head_2" fill-rule="evenodd" clip-rule="evenodd" d="M155.177 90.6498C162.462 95.0409 169.62 97.1625 172.98 96.2964C181.406 94.1246 182.18 63.3019 175.661 51.1507C169.142 38.9994 135.628 33.7031 133.939 57.7786C133.353 66.1345 136.861 73.5915 142.045 79.6764L132.75 123H159.75L155.177 90.6498Z" fill="#B28B67"/>
</g>
<path id="Hair" fill-rule="evenodd" clip-rule="evenodd" d="M156.527 60.4375C158.863 56.9601 161.105 54.3076 164.021 52.7673C175.891 52.9549 177.281 50.8269 177.281 43.6548C175.364 42.2829 168.599 39.9729 161.024 39.3231C157.159 38.2172 152.581 38.4252 148.171 40.2699C142.727 41.8146 138.117 45.1412 136.081 51.3693C128.714 64.0826 134.305 77.3167 141.84 81.8376C143.846 79.4612 145.597 77.1583 147.158 74.9537C145.904 73.7281 145.125 72.0175 145.125 70.125C145.125 66.397 148.147 63.375 151.875 63.375C152.149 63.375 152.419 63.3913 152.685 63.423C152.853 68.084 153.543 83.8529 155.356 89.3304C157.494 95.788 169.969 97.3736 174.32 97.3736C178.078 97.3736 177.95 93.815 177.858 91.2646C177.845 90.8973 177.833 90.5509 177.833 90.2391C177.833 89.5876 176.985 89.5893 176.028 89.5912C174.784 89.5936 173.356 89.5965 173.356 88.17C173.356 86.6151 175.504 85.4224 177.427 84.3551C178.627 83.6893 179.739 83.0722 180.186 82.4465C181.596 80.4724 182.071 77.8099 179.943 77.8099C178.78 77.8099 177.185 78.4804 175.265 79.287C172.367 80.5047 168.73 82.0327 164.729 82.0327C158.119 82.0327 156.547 60.7044 156.527 60.4375Z" fill="#191847"/>
</g>
<g id="Head_3">
<path id="hair" fill-rule="evenodd" clip-rule="evenodd" d="M164.859 31.8913C161.175 30.7672 155.827 30.3859 153.577 30.6438C154.857 27.5756 155.365 24.1573 154.951 20.8289C154.549 17.5948 153.104 14.841 151.769 11.9554C151.153 10.6254 150.456 9.30253 149.415 8.28517C148.356 7.2487 147.014 6.56454 145.608 6.23814C144.168 5.90403 142.663 5.93185 141.222 6.23505C140.584 6.36917 140.012 6.66095 139.386 6.82316C138.746 6.98935 138.435 6.58819 137.97 6.18503C136.85 5.21362 135.207 4.73407 133.79 4.56245C132.2 4.36998 130.55 4.61002 129.033 5.13315C127.557 5.64242 126.139 6.46939 125.072 7.67414C124.596 8.21041 124.165 8.82081 123.885 9.49473C123.77 9.77129 123.751 9.93513 123.475 10.0364C123.22 10.1302 122.921 10.1329 122.658 10.2222C120.113 11.0849 117.937 13.0529 116.752 15.5798C116.061 17.0539 115.733 19.6494 115.823 22.5585C115.912 25.4676 118.537 33.0582 120.992 35.8269C123.184 38.2982 126.405 39.9291 129.514 40.643C127.45 43.0031 126.077 45.9523 125.061 48.9517C123.958 52.2099 123.275 55.5952 123.023 59.0446C122.783 62.3218 122.761 65.7875 123.529 68.9948C124.247 71.9942 125.783 74.4547 128.347 76.0157C129.522 76.7307 130.785 77.2679 132.056 77.7589C133.309 78.2427 134.565 78.7131 135.878 78.9846C138.361 79.4982 141.222 79.41 143.135 77.432C143.825 76.7189 144.583 75.8229 145.086 74.9518C145.267 74.6386 145.376 74.4337 145.156 74.1275C144.893 73.7608 144.467 73.4798 144.129 73.1929C142.2 71.5571 141.007 69.3734 140.706 66.7784C140.401 64.1453 141.107 60.7467 143.666 59.5976C146.824 58.1791 150.301 59.8073 153.108 61.325C154.301 57.1121 156.75 53.3187 160.59 51.3862C164.838 49.2483 169.713 48.9981 174.079 47.1638C175.216 46.6858 176.375 46.1431 177.213 45.1692C177.563 44.7621 177.973 44.2341 178.113 43.6958C178.297 42.9886 177.841 42.3957 177.489 41.8444C175.622 38.9211 168.543 33.0154 164.859 31.8913Z" fill="#191847"/>
</g>
</g>
<g id="Body/Long Sleeve 1">
<path id="Skin_2" fill-rule="evenodd" clip-rule="evenodd" d="M253.61 238.166L217.778 211.835L209.856 231.429L245.34 246.154C255.375 257.95 260.987 262.868 262.175 260.907C263.176 259.253 262.393 257.705 261.672 256.279C261.11 255.169 260.586 254.132 260.972 253.177C261.854 250.997 268.595 251.227 274.982 251.718C281.37 252.21 279.509 249.365 277.968 247.961C271.448 244.055 263.328 240.79 253.61 238.166ZM65.697 284.562C68.9889 277.879 80.1992 212.744 80.1992 212.744L103.674 212.836C103.674 212.836 81.9321 283.072 80.1992 287.369C77.9482 292.952 81.7719 301.063 84.3648 306.563C84.7659 307.414 85.1375 308.202 85.4527 308.909C81.855 310.52 80.1268 308.573 78.3048 306.52C76.2469 304.201 74.0694 301.748 68.9434 304.134C66.963 305.056 65.089 306.146 63.2581 307.211C56.9338 310.89 51.1239 314.27 43.2204 309.39C41.9674 308.616 40.5943 305.703 43.9118 303.426C52.177 297.755 64.0877 287.829 65.697 284.562Z" fill="#B28B67"/>
<path id="Coat Back" fill-rule="evenodd" clip-rule="evenodd" d="M146.911 114.172L156.624 112.505C192.665 143.66 207.468 203.513 251.644 235.22L241.011 248.409C164.373 238.914 145.378 165.907 146.911 114.172Z" fill="#212838"/>
<path id="Shirt" fill-rule="evenodd" clip-rule="evenodd" d="M104.567 236.328C104.567 236.328 162.989 236.328 190.515 236.328C194.442 236.328 193.702 230.653 193.134 227.789C186.582 194.74 161.004 159.114 161.004 112.068L136.213 108.178C115.707 141.18 108.616 181.813 104.567 236.328Z" fill="#F2F2F2"/>
<path id="Coat Front" fill-rule="evenodd" clip-rule="evenodd" d="M94.9025 259.934C91.0398 269.218 87.2519 277.319 83.6828 283.541H65.25C63.2669 219.375 87.543 170.001 107.86 140.23C103.349 139.907 99.2771 138.018 96.7033 133.371C87.642 117.009 90.9145 108.001 100.598 105.04C105.923 103.411 110.931 104.523 116.926 105.853C121.832 106.942 127.398 108.177 134.339 108.178C134.342 108.178 134.344 108.178 134.346 108.178C135.019 108.178 135.631 108.223 136.187 108.309L144.413 108.779C144.413 108.779 177.814 222.058 162.837 259.934H94.9025Z" fill="#212838"/>
<path id="Shade" fill-rule="evenodd" clip-rule="evenodd" d="M94.9025 259.934C99.9706 247.754 105.168 233.536 110.169 218.853C112.031 235.023 115.131 251.263 120.293 259.934H94.9025Z" fill="black" fill-opacity="0.1"/>
</g>
</g>
</svg>
