<svg width="80" height="25" viewBox="0 0 80 25" fill="none" xmlns="http://www.w3.org/2000/svg">
<g id="Vector">
<path d="M0 1.30208C0 0.582962 0.588663 0 1.31482 0H23.9296C24.6558 0 25.2445 0.582963 25.2445 1.30208V23.6979C25.2445 24.417 24.6558 25 23.9296 25H1.31482C0.588663 25 0 24.417 0 23.6979V1.30208Z" fill="#212838"/>
<path d="M2.07289 10.1562L5.11012 3.73047H6.49068L9.54631 10.1562H7.84362L7.06131 8.38802L7.71477 8.85286H3.90443L4.54869 8.38802L3.77558 10.1562H2.07289ZM5.79119 5.46224L4.71436 8.00521L4.45666 7.57682H7.15334L6.92325 8.00521L5.83721 5.46224H5.79119Z" fill="#ECEEF4"/>
<path d="M9.94717 10.1562V3.73047H12.561C13.328 3.73047 13.9753 3.86111 14.503 4.1224C15.0307 4.3776 15.4295 4.74523 15.6995 5.22526C15.9756 5.69922 16.1137 6.2704 16.1137 6.9388C16.1137 7.60113 15.9756 8.17231 15.6995 8.65234C15.4295 9.13238 15.0307 9.50304 14.503 9.76432C13.9753 10.0256 13.328 10.1562 12.561 10.1562H9.94717ZM11.6499 8.78906H12.4506C13.1194 8.78906 13.6133 8.63715 13.9324 8.33333C14.2576 8.02951 14.4202 7.56467 14.4202 6.9388C14.4202 6.30686 14.2576 5.84201 13.9324 5.54427C13.6133 5.24045 13.1194 5.08854 12.4506 5.08854H11.6499V8.78906Z" fill="#ECEEF4"/>
<path d="M17.1376 10.1562V3.73047H20.2024C20.951 3.73047 21.5277 3.90668 21.9327 4.25911C22.3438 4.61154 22.5494 5.10069 22.5494 5.72656C22.5494 6.14583 22.4573 6.50434 22.2732 6.80208C22.0892 7.09375 21.8223 7.32161 21.4725 7.48568C21.1228 7.64366 20.7055 7.72266 20.2208 7.72266L20.3036 7.49479H20.7638C21.0338 7.49479 21.2731 7.56771 21.4817 7.71354C21.6903 7.85937 21.8621 8.06293 21.9971 8.32422L22.9819 10.1562H21.1228L20.0643 8.10547C19.9969 7.97179 19.8956 7.88064 19.7606 7.83203C19.6318 7.78342 19.4845 7.75911 19.3188 7.75911H18.8403V10.1562H17.1376ZM18.8403 6.5651H19.9079C20.2392 6.5651 20.4908 6.5013 20.6626 6.3737C20.8344 6.24002 20.9203 6.04253 20.9203 5.78125C20.9203 5.52604 20.8344 5.33464 20.6626 5.20703C20.4908 5.07943 20.2392 5.01562 19.9079 5.01562H18.8403V6.5651Z" fill="#ECEEF4"/>
<path d="M4.36491 21.6146V15.1888H6.06759V21.6146H4.36491Z" fill="#ECEEF4"/>
<path d="M6.88147 21.6146L9.9187 15.1888H11.2993L14.3549 21.6146H12.6522L11.8699 19.8464L12.5233 20.3112H8.71301L9.35727 19.8464L8.58416 21.6146H6.88147ZM10.5998 16.9206L9.52294 19.4635L9.26523 19.0352H11.9619L11.7318 19.4635L10.6458 16.9206H10.5998Z" fill="#ECEEF4"/>
<path d="M15.1699 21.6146V15.1888H16.4216L19.7073 19.2266H19.4404V15.1888H21.0143V21.6146H19.7626L16.4953 17.5768H16.7622V21.6146H15.1699Z" fill="#ECEEF4"/>
<path d="M27.0589 15.8854L30.0961 9.45963H31.4767L34.5323 15.8854H32.8296L32.0473 14.1172L32.7008 14.582H28.8904L29.5347 14.1172L28.7616 15.8854H27.0589ZM30.7772 11.1914L29.7004 13.7344L29.4426 13.306H32.1393L31.9092 13.7344L30.8232 11.1914H30.7772Z" fill="#ECEEF4"/>
<path d="M36.6553 15.9857C36.2565 15.9857 35.9006 15.8915 35.5877 15.7031C35.2748 15.5087 35.0293 15.2292 34.8514 14.8646C34.6735 14.5 34.5845 14.0686 34.5845 13.5703C34.5845 13.066 34.6704 12.6345 34.8422 12.276C35.0201 11.9115 35.2656 11.635 35.5785 11.4466C35.8976 11.2522 36.2565 11.1549 36.6553 11.1549C37.0112 11.1549 37.3333 11.237 37.6217 11.401C37.9101 11.559 38.1034 11.7717 38.2016 12.0391H38.0635V9.17708H39.7018V15.8854H38.0911V15.056H38.2108C38.1249 15.3355 37.9347 15.5603 37.6401 15.7305C37.3518 15.9006 37.0235 15.9857 36.6553 15.9857ZM37.1799 14.7826C37.4499 14.7826 37.6708 14.6884 37.8426 14.5C38.0206 14.3056 38.1095 13.9957 38.1095 13.5703C38.1095 13.145 38.0206 12.8381 37.8426 12.6497C37.6708 12.4553 37.4499 12.3581 37.1799 12.3581C36.9038 12.3581 36.6768 12.4553 36.4989 12.6497C36.3271 12.8381 36.2412 13.145 36.2412 13.5703C36.2412 13.9957 36.3271 14.3056 36.4989 14.5C36.6768 14.6884 36.9038 14.7826 37.1799 14.7826Z" fill="#ECEEF4"/>
<path d="M40.7193 15.8854V12.5221C40.7193 12.3095 40.7131 12.0968 40.7009 11.8841C40.6886 11.6714 40.6702 11.4618 40.6456 11.2552H42.2287L42.4036 12.6771H42.1551C42.2164 12.3307 42.3146 12.0451 42.4496 11.8203C42.5846 11.5955 42.7533 11.4284 42.9558 11.319C43.1583 11.2096 43.3976 11.1549 43.6737 11.1549C43.8025 11.1549 43.8976 11.161 43.959 11.1732C44.0265 11.1793 44.097 11.1975 44.1707 11.2279V12.6497C44.0173 12.5829 43.8946 12.5404 43.8025 12.5221C43.7105 12.5039 43.5908 12.4948 43.4436 12.4948C43.192 12.4948 42.9865 12.5404 42.8269 12.6315C42.6674 12.7166 42.5508 12.8503 42.4772 13.0326C42.4097 13.2148 42.3759 13.4488 42.3759 13.7344V15.8854H40.7193Z" fill="#ECEEF4"/>
<path d="M44.665 15.8854V11.2552H46.3033V15.8854H44.665ZM44.6282 10.599V9.14062H46.3493V10.599H44.6282Z" fill="#ECEEF4"/>
<path d="M49.1572 15.9857C48.7522 15.9857 48.3964 15.8915 48.0896 15.7031C47.7828 15.5087 47.5404 15.2292 47.3625 14.8646C47.1907 14.5 47.1048 14.0686 47.1048 13.5703C47.1048 13.066 47.1907 12.6345 47.3625 12.276C47.5404 11.9115 47.7828 11.635 48.0896 11.4466C48.3964 11.2522 48.7522 11.1549 49.1572 11.1549C49.5192 11.1549 49.8444 11.24 50.1328 11.4102C50.4273 11.5803 50.6206 11.8021 50.7126 12.0755H50.6206L50.7218 11.2552H52.2957C52.2773 11.4618 52.2589 11.6714 52.2405 11.8841C52.2282 12.0968 52.222 12.3064 52.222 12.513V15.8854H50.6022L50.5838 15.1016H50.6942C50.6022 15.3689 50.4089 15.5846 50.1144 15.7487C49.826 15.9067 49.507 15.9857 49.1572 15.9857ZM49.6818 14.7826C49.9579 14.7826 50.1819 14.6884 50.3537 14.5C50.5255 14.3056 50.6114 13.9957 50.6114 13.5703C50.6114 13.145 50.5255 12.8381 50.3537 12.6497C50.1819 12.4553 49.9579 12.3581 49.6818 12.3581C49.4057 12.3581 49.1818 12.4553 49.01 12.6497C48.8382 12.8381 48.7522 13.145 48.7522 13.5703C48.7522 13.9957 48.8351 14.3056 49.0007 14.5C49.1726 14.6884 49.3996 14.7826 49.6818 14.7826Z" fill="#ECEEF4"/>
<path d="M53.2396 15.8854V12.513C53.2396 12.3064 53.2334 12.0968 53.2212 11.8841C53.2089 11.6714 53.1905 11.4618 53.1659 11.2552H54.749L54.841 12.0573H54.7398C54.8932 11.7656 55.111 11.5438 55.3932 11.3919C55.6755 11.2339 55.9945 11.1549 56.3504 11.1549C56.8965 11.1549 57.3045 11.316 57.5745 11.638C57.8506 11.954 57.9887 12.4492 57.9887 13.1237V15.8854H56.3504V13.1966C56.3504 12.8989 56.2983 12.6923 56.194 12.5768C56.0896 12.4553 55.9393 12.3945 55.743 12.3945C55.4853 12.3945 55.2766 12.4796 55.1171 12.6497C54.9576 12.8138 54.8778 13.0326 54.8778 13.306V15.8854H53.2396Z" fill="#ECEEF4"/>
<path d="M61.754 15.8854V9.45963H63.2266L65.3526 14.1719H65.0489L67.1658 9.45963H68.6476V15.8854H67.1106V11.9479H67.5063L65.6656 15.8854H64.7084L62.8584 11.9479H63.2818V15.8854H61.754Z" fill="#ECEEF4"/>
<path d="M72.1338 15.9857C71.6184 15.9857 71.1675 15.8885 70.7809 15.694C70.3943 15.4996 70.0937 15.2231 69.8789 14.8646C69.6642 14.5 69.5568 14.0655 69.5568 13.5612C69.5568 13.0569 69.6642 12.6254 69.8789 12.2669C70.0937 11.9084 70.3943 11.635 70.7809 11.4466C71.1675 11.2522 71.6184 11.1549 72.1338 11.1549C72.4529 11.1549 72.7658 11.1975 73.0726 11.2826C73.3794 11.3676 73.6279 11.4891 73.8181 11.6471L73.3579 12.75C73.2107 12.6285 73.0419 12.5373 72.8517 12.4766C72.6677 12.4097 72.4866 12.3763 72.3087 12.3763C71.9712 12.3763 71.7074 12.4766 71.5172 12.6771C71.3331 12.8776 71.2411 13.1723 71.2411 13.5612C71.2411 13.9501 71.3331 14.2478 71.5172 14.4544C71.7074 14.6549 71.9712 14.7552 72.3087 14.7552C72.4805 14.7552 72.6615 14.7248 72.8517 14.6641C73.0419 14.5972 73.2107 14.5061 73.3579 14.3906L73.8181 15.4935C73.6218 15.6454 73.3702 15.7669 73.0634 15.8581C72.7628 15.9431 72.4529 15.9857 72.1338 15.9857Z" fill="#ECEEF4"/>
<path d="M77.8463 15.9857C77.1407 15.9857 76.5302 15.849 76.0148 15.5755C75.5055 15.3021 75.1098 14.9162 74.8275 14.418C74.5514 13.9197 74.4133 13.3364 74.4133 12.668C74.4133 11.9996 74.5514 11.4193 74.8275 10.9271C75.1098 10.4288 75.5055 10.043 76.0148 9.76953C76.5302 9.49609 77.1407 9.35937 77.8463 9.35937C78.2942 9.35937 78.7023 9.42014 79.0704 9.54167C79.4386 9.65712 79.7484 9.82422 80 10.043L79.4938 11.3646C79.2115 11.1641 78.9508 11.0243 78.7115 10.9453C78.4783 10.8602 78.2114 10.8177 77.9108 10.8177C77.3585 10.8177 76.9321 10.9787 76.6314 11.3008C76.3369 11.6168 76.1897 12.0725 76.1897 12.668C76.1897 13.2695 76.3369 13.7313 76.6314 14.0534C76.9321 14.3694 77.3585 14.5273 77.9108 14.5273C78.2114 14.5273 78.4783 14.4878 78.7115 14.4089C78.9508 14.3238 79.2115 14.181 79.4938 13.9805L80 15.3021C79.7484 15.5208 79.4386 15.691 79.0704 15.8125C78.7023 15.928 78.2942 15.9857 77.8463 15.9857Z" fill="#ECEEF4"/>
</g>
</svg>
