<svg width="216" height="200" viewBox="0 0 216 200" fill="none" xmlns="http://www.w3.org/2000/svg">
<g id="profileMobile">
<path id="Background" fill-rule="evenodd" clip-rule="evenodd" d="M106.813 197.628C150.947 197.628 186.725 161.882 186.725 117.787C186.725 73.6911 150.947 37.9447 106.813 37.9447C62.679 37.9447 26.9011 73.6911 26.9011 117.787C26.9011 161.882 62.679 197.628 106.813 197.628Z" fill="#4D5D83"/>
<mask id="mask0_0_534" style="mask-type:alpha" maskUnits="userSpaceOnUse" x="0" y="0" width="216" height="200">
<path id="Mask" fill-rule="evenodd" clip-rule="evenodd" d="M106.813 197.628C143.436 197.628 174.305 173.014 183.751 139.441C185.689 132.554 215.736 109.85 215.736 102.345C215.736 58.2496 150.947 0.0267715 106.813 0.0267715C62.679 0.0267715 -29.2747 178.66 9.61031 197.628C32.8353 208.958 48.0708 172.088 51.1683 175.091C65.5564 189.041 85.181 197.628 106.813 197.628Z" fill="white"/>
</mask>
<g mask="url(#mask0_0_534)">
<g id="proflehead">
<g id="Group 5">
<g id="Head/Front">
<g id="Head">
<path id="Head_2" fill-rule="evenodd" clip-rule="evenodd" d="M113.43 50.724C118.126 53.0281 122.629 53.9484 124.648 53.2396C129.71 51.462 128.617 32.5351 123.996 25.4355C119.375 18.3359 98.5302 16.8683 98.7182 31.7095C98.7835 36.8604 101.317 41.2434 104.809 44.6968L101.307 71.7352L117.884 70.3032L113.43 50.724Z" fill="#B28B67"/>
</g>
<path id="Hair" fill-rule="evenodd" clip-rule="evenodd" d="M112.722 32.1406C113.978 29.8861 115.22 28.1419 116.932 27.0434C124.229 26.5288 124.974 25.1513 124.609 20.7567C123.362 20.0179 119.092 18.9612 114.408 18.9649C111.979 18.4922 109.179 18.8625 106.565 20.2267C103.301 21.4619 100.64 23.7447 99.7069 27.6688C95.831 35.8492 99.9374 43.6615 104.794 46.0319C105.904 44.4695 106.862 42.9656 107.708 41.5319C106.876 40.8475 106.31 39.8407 106.214 38.6811C106.024 36.3969 107.726 34.3849 110.015 34.1872C110.183 34.1727 110.35 34.1684 110.514 34.1737C110.855 37.0207 112.081 46.6461 113.473 49.9061C115.114 53.7494 122.854 54.0593 125.525 53.8285C127.832 53.6292 127.573 51.4556 127.386 49.8978C127.36 49.6734 127.334 49.4619 127.318 49.2708C127.285 48.8716 126.765 48.9176 126.177 48.9695C125.414 49.037 124.537 49.1145 124.465 48.2405C124.385 47.2877 125.644 46.443 126.77 45.6871C127.473 45.2154 128.124 44.7784 128.367 44.3713C129.132 43.0869 129.288 41.4303 127.982 41.5432C127.268 41.6049 126.322 42.1003 125.185 42.6963C123.467 43.5962 121.313 44.7253 118.856 44.9375C114.798 45.2881 112.747 32.3031 112.722 32.1406Z" fill="#191847"/>
</g>
</g>
<g id="Head/Front_2">
<path id="bun" fill-rule="evenodd" clip-rule="evenodd" d="M115.669 15.198C113.495 14.8504 110.438 15.065 109.186 15.3957C109.667 13.5277 109.683 11.5209 109.185 9.64057C108.701 7.81354 107.666 6.34722 106.681 4.79628C106.228 4.0814 105.728 3.37734 105.059 2.87672C104.377 2.36668 103.564 2.08208 102.742 2.00848C101.901 1.93312 101.051 2.0712 100.259 2.36248C99.9092 2.49133 99.6085 2.70553 99.2674 2.84953C98.9181 2.99704 98.7105 2.79157 98.4155 2.59746C97.7045 2.12976 96.737 1.98723 95.9213 2.00351C95.0062 2.02183 94.0914 2.2937 93.2746 2.71753C92.4796 3.13011 91.7426 3.72066 91.234 4.49999C91.0076 4.8469 90.8119 5.23287 90.7066 5.64313C90.6635 5.81148 90.6657 5.90723 90.5177 5.98786C90.3807 6.06248 90.2121 6.08824 90.0703 6.16092C88.6982 6.86343 87.6226 8.17159 87.1523 9.72069C86.8779 10.6244 86.8982 12.1434 87.1795 13.8089C87.4608 15.4744 89.5477 19.6263 91.1564 21.0192C92.5924 22.2625 94.5445 22.939 96.3602 23.0973C95.3796 24.6218 94.836 26.429 94.4988 28.2362C94.1327 30.1991 94.0145 32.2012 94.1452 34.205C94.2693 36.1089 94.5314 38.1036 95.22 39.8856C95.8641 41.552 96.9283 42.8422 98.503 43.5318C99.2244 43.8477 99.9821 44.0541 100.74 44.2333C101.487 44.4099 102.236 44.5785 103 44.6282C104.446 44.7221 106.058 44.4393 106.984 43.1467C107.317 42.6808 107.675 42.1041 107.891 41.5624C107.969 41.3676 108.014 41.2409 107.865 41.0827C107.687 40.8932 107.424 40.7661 107.21 40.6286C105.989 39.8444 105.141 38.6856 104.765 37.2177C104.384 35.7285 104.514 33.7169 105.871 32.8486C107.545 31.7768 109.643 32.431 111.351 33.076C111.692 30.5567 112.778 28.1769 114.798 26.7542C117.032 25.1802 119.771 24.6409 122.096 23.232C122.702 22.8649 123.315 22.4589 123.712 21.8309C123.878 21.5685 124.068 21.2315 124.105 20.9106C124.153 20.4891 123.848 20.1851 123.605 19.8967C122.317 18.3672 117.842 15.5455 115.669 15.198Z" fill="#191847"/>
</g>
</g>
<g id="Human">
<g id="Bottom/Standing/Sprint">
<path id="Leg" fill-rule="evenodd" clip-rule="evenodd" d="M81.2898 139.826C82.7165 159.28 174.623 216.556 175.159 218.163C175.517 219.235 146.552 285.896 146.552 285.896L154.586 289.015C154.586 289.015 199.013 218.416 196.731 210.893C193.464 200.123 125.422 140.033 125.422 140.033L81.2898 139.826Z" fill="#B28B67"/>
<path id="Pant" fill-rule="evenodd" clip-rule="evenodd" d="M148.666 275.859L161.783 280.63C189.442 249.45 200.283 223.724 198.306 210.616C196.33 197.508 127.243 139.874 127.243 139.874L80.3492 139.874C81.9492 184.927 167.135 218.335 168.274 220.255C169.414 222.174 158.201 240.978 148.666 275.859Z" fill="#2F3676"/>
<path id="Leg_2" fill-rule="evenodd" clip-rule="evenodd" d="M91.8572 139.826L50.9153 238.029L10.6758 321.052H20.1696L124.039 139.826H91.8572Z" fill="#997659"/>
<path id="Pant_2" fill-rule="evenodd" clip-rule="evenodd" d="M14.3096 303.805L35.4049 307.757C51.7158 283.798 119.977 185.559 127.462 139.826H80.4986C55.505 172.886 29.8572 279.449 14.3096 303.805Z" fill="#5C63AB"/>
</g>
<g id="Body/Jacket 2">
<path id="Skin" fill-rule="evenodd" clip-rule="evenodd" d="M191.735 105.6L163.066 118.18L172.22 129.897L193.692 113.449C204.416 111.481 209.39 109.79 208.613 108.376C207.958 107.185 206.738 107.118 205.615 107.056C204.74 107.007 203.924 106.962 203.478 106.392C202.459 105.088 204.973 101.06 207.522 97.34C210.072 93.6199 207.682 93.7543 206.284 94.1992C201.607 96.7997 196.757 100.6 191.735 105.6ZM63.3736 124.858L47.1604 121.644C36.1646 150.6 29.6092 166.468 27.4941 169.248C25.9431 171.286 16.3779 176.535 9.90358 179.339C7.30488 180.464 7.86284 182.658 8.62503 183.36C13.4327 187.788 17.9022 186.236 22.7675 184.547C24.176 184.058 25.6176 183.557 27.1103 183.187C30.9737 182.228 32.1494 184.213 33.2605 186.089C34.2442 187.75 35.1773 189.325 37.8803 188.697C37.7574 188.167 37.6063 187.573 37.4433 186.932C36.3896 182.789 34.8356 176.68 37.1411 173.131C38.3243 171.309 47.0684 155.218 63.3736 124.858Z" fill="#BA8B72"/>
<path id="Coat Back" fill-rule="evenodd" clip-rule="evenodd" d="M107.44 61.0372L114.282 59.8647C129.183 74.3075 135.265 109.006 145.196 113.599C154.585 117.941 167.895 113.739 183.716 108.065L188.561 118.881C174.186 134.419 143.562 147.547 131.149 140.053C111.302 128.071 106.721 85.2756 107.44 61.0372Z" fill="#212838"/>
<path id="Shirt" fill-rule="evenodd" clip-rule="evenodd" d="M77.6154 146.941C77.6154 146.941 118.764 146.941 138.152 146.941C140.918 146.941 140.397 142.95 139.997 140.936C135.382 117.695 117.367 92.6415 117.367 59.5579L99.9051 56.8221C85.4622 80.0304 80.4675 108.604 77.6154 146.941Z" fill="#DDE3E9"/>
<path id="Coat Front" fill-rule="evenodd" clip-rule="evenodd" d="M98.978 56.8221H98.7787C59.6127 80.9363 35.9429 118.317 27.7692 168.963L40.4582 171.447C48.8636 161.663 59.2367 145.65 71.5775 123.41C67.7912 136.807 65.027 150.548 64.1648 163.541H118.657C129.206 136.905 105.693 56.8221 105.693 56.8221H101.93H98.978Z" fill="#212838"/>
</g>
</g>
</g>
</g>
</svg>
